# Blender v2.76 (sub 0) OBJ File: 'Model+Scene.blend'
# www.blender.org
mtllib test.mtl
o Plane
v -13.835092 0.000000 13.835092
v 13.835092 0.000000 13.835092
v -13.835092 0.000000 -13.835092
v 13.835092 0.000000 -13.835092
vn 0.000000 1.000000 0.000000
usemtl Material.002
s off
f 1//1 2//1 4//1 3//1
o Cube_Cube.002
v -1.979626 3.659970 3.961345
v -1.979626 3.434951 3.961345
v -1.979626 3.659970 -3.961345
v -1.979626 3.434951 -3.961345
v 1.979626 3.659970 3.961345
v 1.979626 3.434951 3.961345
v 1.979626 3.659970 -3.961345
v 1.979626 3.434951 -3.961345
v -1.979626 3.434951 0.000000
v -1.979626 3.659970 0.000000
v 1.979626 3.434951 0.000000
v 1.979626 3.659970 0.000000
v -1.979626 3.659970 3.281413
v 1.979626 3.434951 3.281413
v -1.979626 3.434951 3.281413
v 1.979626 3.659970 3.281413
v -1.979626 3.434951 -3.192726
v 1.979626 3.659970 -3.192726
v -1.979626 3.659970 -3.192726
v 1.979626 3.434951 -3.192726
v 0.000000 3.434951 -3.961345
v 0.000000 3.659970 -3.961345
v 0.000000 3.434951 3.961345
v 0.000000 3.659970 3.961345
v 0.000000 3.434951 0.000000
v 0.000000 3.659970 0.000000
v 0.000000 3.659970 3.281413
v 0.000000 3.434951 3.281413
v 0.000000 3.434951 -3.192726
v 0.000000 3.659970 -3.192726
v -1.319751 3.659970 -3.961345
v -1.319751 3.434951 3.961345
v -1.319751 3.434951 0.000000
v -1.319751 3.434951 3.281413
v -1.319751 3.434951 -3.192726
v -1.319751 3.434951 -3.961345
v -1.319751 3.659970 3.961345
v -1.319751 3.659970 0.000000
v -1.319751 3.659970 3.281413
v -1.319751 3.659970 -3.192726
v 1.334748 3.434951 -3.961345
v 1.334748 3.659970 3.961345
v 1.334748 3.659970 0.000000
v 1.334748 3.659970 3.281413
v 1.334748 3.659970 -3.192726
v 1.334748 3.659970 -3.961345
v 1.334748 3.434951 3.961345
v 1.334748 3.434951 0.000000
v 1.334748 3.434951 3.281413
v 1.334748 3.434951 -3.192726
v 1.647050 3.434965 3.575173
v -1.979626 0.038266 -3.192726
v -1.979626 0.038266 -3.961345
v 1.334748 0.038266 -3.961345
v 1.979626 0.038266 -3.961345
v 1.979626 0.038266 3.281413
v 1.979626 0.038266 3.961345
v -1.319751 0.038266 3.961345
v -1.979626 0.038266 3.961345
v -1.979626 0.038266 3.281413
v -1.319751 0.038266 3.281413
v 1.979626 0.038266 -3.192726
v -1.319751 0.038266 -3.192726
v -1.319751 0.038266 -3.961345
v 1.334748 0.038266 3.961345
v 1.334748 0.038266 3.281413
v 1.334748 0.038266 -3.192726
vn 1.000000 0.000000 0.000000
vn 0.000000 0.000000 1.000000
vn -1.000000 0.000000 0.000000
vn 0.000000 0.000000 -1.000000
vn 0.000000 -1.000000 0.000000
vn 0.000000 1.000000 0.000000
usemtl Material.001
s off
f 21//2 8//2 7//2 23//2
f 45//3 12//3 11//3 50//3
f 18//4 10//4 9//4 20//4
f 36//5 6//5 5//5 41//5
f 49//6 50//6 11//6 22//6
f 53//2 51//2 69//2 70//2
f 38//7 37//7 13//7 19//7
f 48//6 47//6 16//6 20//6
f 24//4 15//4 16//4 22//4
f 19//2 13//2 14//2 17//2
f 6//2 19//2 17//2 5//2
f 46//6 48//6 20//6 9//6
f 39//4 40//4 68//4 67//4
f 15//4 18//4 20//4 16//4
f 12//4 24//4 22//4 11//4
f 37//7 39//7 21//7 13//7
f 47//6 49//6 22//6 16//6
f 13//2 21//2 23//2 14//2
f 42//6 44//6 34//6 30//6
f 52//7 54//7 33//7 29//7
f 51//7 53//7 32//7 27//7
f 41//6 43//6 31//6 28//6
f 43//6 42//6 30//6 31//6
f 53//7 52//7 29//7 32//7
f 54//7 45//7 25//7 33//7
f 44//6 35//6 26//6 34//6
f 51//5 27//5 28//5 46//5
f 40//3 25//3 26//3 35//3
f 8//3 40//3 35//3 7//3
f 23//6 7//6 35//6 44//6
f 17//6 14//6 42//6 43//6
f 5//6 17//6 43//6 41//6
f 14//6 23//6 44//6 42//6
f 29//7 33//7 39//7 37//7
f 27//7 32//7 38//7 36//7
f 32//7 29//7 37//7 38//7
f 33//7 25//7 40//7 39//7
f 27//5 36//5 41//5 28//5
f 10//5 51//5 46//5 9//5
f 19//2 6//2 63//2 64//2
f 18//7 15//7 52//7 53//7
f 10//4 18//4 60//4 61//4
f 15//7 24//7 54//7 52//7
f 30//6 34//6 49//6 47//6
f 28//6 31//6 48//6 46//6
f 31//6 30//6 47//6 48//6
f 34//6 26//6 50//6 49//6
f 25//3 45//3 50//3 26//3
f 67//7 68//7 57//7 56//7
f 62//7 65//7 64//7 63//7
f 66//7 59//7 58//7 71//7
f 61//7 60//7 70//7 69//7
f 51//5 10//5 61//5 69//5
f 8//2 21//2 56//2 57//2
f 24//4 12//4 59//4 66//4
f 40//3 8//3 57//3 68//3
f 18//3 53//3 70//3 60//3
f 6//5 36//5 62//5 63//5
f 21//5 39//5 67//5 56//5
f 54//5 24//5 66//5 71//5
f 38//3 19//3 64//3 65//3
f 12//3 45//3 58//3 59//3
f 36//4 38//4 65//4 62//4
f 45//2 54//2 71//2 58//2
